<svg xmlns="http://www.w3.org/2000/svg" width="1024" height="768" viewBox="0 0 1024 768">
  <defs>
    <linearGradient id="sky" x1="0" y1="0" x2="1" y2="1">
      <stop offset="0%" stop-color="#22315c"/>
      <stop offset="58%" stop-color="#d85c2f"/>
      <stop offset="100%" stop-color="#f0b23a"/>
    </linearGradient>
    <filter id="paper" x="-10%" y="-10%" width="120%" height="120%">
      <feTurbulence type="fractalNoise" baseFrequency="0.018" numOctaves="2" seed="30" result="noise"/>
      <feColorMatrix type="saturate" values="0.18"/>
      <feBlend in="SourceGraphic" in2="noise" mode="multiply"/>
    </filter>
    <radialGradient id="jar" cx="50%" cy="42%" r="58%">
      <stop offset="0%" stop-color="#fffaf0" stop-opacity="0.95"/>
      <stop offset="100%" stop-color="#fff1ce" stop-opacity="0.24"/>
    </radialGradient>
  </defs>
  <rect width="100%" height="100%" fill="url(#sky)"/>
  <rect width="100%" height="100%" fill="#fff4dd" opacity="0.14" filter="url(#paper)"/>
  <circle cx="512" cy="325" r="238" fill="url(#jar)" opacity="0.24"/>
  <circle cx="512" cy="325" r="176" fill="none" stroke="#fff6df" stroke-width="18" opacity="0.5"/>
  <circle cx="758" cy="169" r="93" fill="#fff3d1" opacity="0.88"/>
<path d="M-120 768 L80 353 L330 768 Z" fill="#1f294f" opacity="0.18"/>
<path d="M110 768 L310 389 L560 768 Z" fill="#1f294f" opacity="0.21"/>
<path d="M340 768 L540 425 L790 768 Z" fill="#1f294f" opacity="0.25"/>
<path d="M570 768 L770 353 L1020 768 Z" fill="#1f294f" opacity="0.29"/>
<path d="M800 768 L1000 389 L1250 768 Z" fill="#1f294f" opacity="0.32"/>
<path d="M1030 768 L1230 425 L1480 768 Z" fill="#1f294f" opacity="0.35"/>
<ellipse cx="157" cy="105" rx="74" ry="22" fill="#fff8e4" opacity="0.28"/>
<ellipse cx="417" cy="147" rx="79" ry="25" fill="#fff8e4" opacity="0.28"/>
<ellipse cx="677" cy="189" rx="84" ry="28" fill="#fff8e4" opacity="0.28"/>

        <path d="M500 640 Q560 395 650 640" stroke="#5f4b2e" stroke-width="28" fill="none"/>
        <circle cx="250" cy="310" r="22" fill="#e66f2e"/><path d="M241 288 Q250 278 259 288" fill="#4f8a59"/>
<circle cx="332" cy="310" r="22" fill="#e66f2e"/><path d="M323 288 Q332 278 341 288" fill="#4f8a59"/>
<circle cx="414" cy="310" r="22" fill="#e66f2e"/><path d="M405 288 Q414 278 423 288" fill="#4f8a59"/>
<circle cx="496" cy="310" r="22" fill="#e66f2e"/><path d="M487 288 Q496 278 505 288" fill="#4f8a59"/>
<circle cx="578" cy="310" r="22" fill="#e66f2e"/><path d="M569 288 Q578 278 587 288" fill="#4f8a59"/>
<circle cx="250" cy="380" r="22" fill="#e66f2e"/><path d="M241 358 Q250 348 259 358" fill="#4f8a59"/>
<circle cx="332" cy="380" r="22" fill="#e66f2e"/><path d="M323 358 Q332 348 341 358" fill="#4f8a59"/>
<circle cx="414" cy="380" r="22" fill="#e66f2e"/><path d="M405 358 Q414 348 423 358" fill="#4f8a59"/>
<circle cx="496" cy="380" r="22" fill="#e66f2e"/><path d="M487 358 Q496 348 505 358" fill="#4f8a59"/>
<circle cx="578" cy="380" r="22" fill="#e66f2e"/><path d="M569 358 Q578 348 587 358" fill="#4f8a59"/>
        <ellipse cx="745" cy="570" rx="112" ry="68" fill="#d65c31"/>
        <circle cx="670" cy="528" r="54" fill="#d65c31"/>
        <path d="M630 515 L710 515 M642 546 L698 546" stroke="#1f294f" stroke-width="7" opacity="0.55"/>
        <path d="M825 560 Q894 510 925 586" stroke="#d65c31" stroke-width="24" fill="none" stroke-linecap="round"/>
        
  <rect x="48" y="46" width="300" height="64" rx="32" fill="#fff8e8" opacity="0.82"/>
  <text x="84" y="87" fill="#22315c" font-family="-apple-system, BlinkMacSystemFont, Helvetica, Arial, sans-serif" font-size="27" font-weight="800">호랑이와 곶감</text>
  <rect x="700" y="52" width="276" height="46" rx="23" fill="#31745d" opacity="0.78"/>
  <text x="838" y="83" fill="#fff8e8" font-family="-apple-system, BlinkMacSystemFont, Helvetica, Arial, sans-serif" font-size="21" font-weight="700" text-anchor="middle">Scene 11 · runAway</text>
  <rect x="70" y="632" width="884" height="86" rx="28" fill="#fff9eb" opacity="0.82"/>
  <text x="104" y="669" fill="#22315c" font-family="-apple-system, BlinkMacSystemFont, Helvetica, Arial, sans-serif" font-size="22" font-weight="600" text-anchor="start">The traveler, thinking the tiger had attacked, leapt</text>
<text x="104" y="697" fill="#22315c" font-family="-apple-system, BlinkMacSystemFont, Helvetica, Arial, sans-serif" font-size="22" font-weight="600" text-anchor="start">onto the tiger’s back. The tiger, thinking gotgam had</text>
<text x="104" y="725" fill="#22315c" font-family="-apple-system, BlinkMacSystemFont, Helvetica, Arial, sans-serif" font-size="22" font-weight="600" text-anchor="start">sent a rider, ran.</text>
  <text x="104" y="602" fill="#fff8e8" font-family="-apple-system, BlinkMacSystemFont, Helvetica, Arial, sans-serif" font-size="24" font-weight="700">The Tiger and the Persimmon</text>
</svg>
