<svg xmlns="http://www.w3.org/2000/svg" width="1024" height="768" viewBox="0 0 1024 768">
  <defs>
    <linearGradient id="sky" x1="0" y1="0" x2="1" y2="1">
      <stop offset="0%" stop-color="#1f294f"/>
      <stop offset="58%" stop-color="#2f806c"/>
      <stop offset="100%" stop-color="#f4dfa7"/>
    </linearGradient>
    <filter id="paper" x="-10%" y="-10%" width="120%" height="120%">
      <feTurbulence type="fractalNoise" baseFrequency="0.018" numOctaves="2" seed="33" result="noise"/>
      <feColorMatrix type="saturate" values="0.18"/>
      <feBlend in="SourceGraphic" in2="noise" mode="multiply"/>
    </filter>
    <radialGradient id="jar" cx="50%" cy="42%" r="58%">
      <stop offset="0%" stop-color="#fffaf0" stop-opacity="0.95"/>
      <stop offset="100%" stop-color="#fff1ce" stop-opacity="0.24"/>
    </radialGradient>
  </defs>
  <rect width="100%" height="100%" fill="url(#sky)"/>
  <rect width="100%" height="100%" fill="#fff4dd" opacity="0.14" filter="url(#paper)"/>
  <circle cx="512" cy="325" r="238" fill="url(#jar)" opacity="0.24"/>
  <circle cx="512" cy="325" r="176" fill="none" stroke="#fff6df" stroke-width="18" opacity="0.5"/>
  <circle cx="758" cy="169" r="93" fill="#fff3d1" opacity="0.88"/>
<path d="M-120 768 L80 353 L330 768 Z" fill="#1f294f" opacity="0.18"/>
<path d="M110 768 L310 389 L560 768 Z" fill="#1f294f" opacity="0.21"/>
<path d="M340 768 L540 425 L790 768 Z" fill="#1f294f" opacity="0.25"/>
<path d="M570 768 L770 353 L1020 768 Z" fill="#1f294f" opacity="0.29"/>
<path d="M800 768 L1000 389 L1250 768 Z" fill="#1f294f" opacity="0.32"/>
<path d="M1030 768 L1230 425 L1480 768 Z" fill="#1f294f" opacity="0.35"/>
<ellipse cx="237" cy="105" rx="74" ry="22" fill="#fff8e4" opacity="0.28"/>
<ellipse cx="497" cy="147" rx="79" ry="25" fill="#fff8e4" opacity="0.28"/>
<ellipse cx="757" cy="189" rx="84" ry="28" fill="#fff8e4" opacity="0.28"/>

        <circle cx="389" cy="461" r="30" fill="#f6c7b6"/>
        <path d="M348 530 Q389 445 430 530 Z" fill="#ecdcc6"/>
        <circle cx="471" cy="484" r="24" fill="#f6c7b6"/>
        <path d="M440 545 Q471 476 502 545 Z" fill="#eaa0b8"/>
        <path d="M700 620 Q760 520 828 618" stroke="#d65c31" stroke-width="38" fill="none" stroke-linecap="round"/>
        <circle cx="836" cy="594" r="42" fill="#d65c31"/>
        <path d="M808 582 L864 582 M812 606 L860 606" stroke="#1f294f" stroke-width="5" opacity="0.5"/>
        
  <rect x="48" y="46" width="300" height="64" rx="32" fill="#fff8e8" opacity="0.82"/>
  <text x="84" y="87" fill="#1f294f" font-family="-apple-system, BlinkMacSystemFont, Helvetica, Arial, sans-serif" font-size="27" font-weight="800">해님 달님</text>
  <rect x="700" y="52" width="276" height="46" rx="23" fill="#d65c31" opacity="0.78"/>
  <text x="838" y="83" fill="#fff8e8" font-family="-apple-system, BlinkMacSystemFont, Helvetica, Arial, sans-serif" font-size="21" font-weight="700" text-anchor="middle">Scene 21 · strawFray</text>
  <rect x="70" y="632" width="884" height="86" rx="28" fill="#fff9eb" opacity="0.82"/>
  <text x="104" y="669" fill="#1f294f" font-family="-apple-system, BlinkMacSystemFont, Helvetica, Arial, sans-serif" font-size="22" font-weight="600" text-anchor="start">The tiger climbed and climbed. Halfway up, the straw</text>
<text x="104" y="697" fill="#1f294f" font-family="-apple-system, BlinkMacSystemFont, Helvetica, Arial, sans-serif" font-size="22" font-weight="600" text-anchor="start">whispered, ssuk, ssuk, ssuk. Then it frayed like dry</text>
<text x="104" y="725" fill="#1f294f" font-family="-apple-system, BlinkMacSystemFont, Helvetica, Arial, sans-serif" font-size="22" font-weight="600" text-anchor="start">grass.</text>
  <text x="104" y="602" fill="#fff8e8" font-family="-apple-system, BlinkMacSystemFont, Helvetica, Arial, sans-serif" font-size="24" font-weight="700">The Sun and the Moon</text>
</svg>
